<svg id="visual" viewBox="0 0 1440 600" width="1440" height="600" xmlns="http://www.w3.org/2000/svg" xmlns:xlink="http://www.w3.org/1999/xlink" version="1.1"><g stroke-width="1" stroke-linejoin="bevel"><path d="M771 339.9L863 259.1L766 253.1Z" fill="#013d2f" stroke="#013d2f"></path><path d="M771 339.9L863 340.9L863 259.1Z" fill="#003223" stroke="#003223"></path><path d="M861 167.4L771 169.4L766 253.1Z" fill="#003627" stroke="#003627"></path><path d="M863 259.1L861 167.4L766 253.1Z" fill="#013d2f" stroke="#013d2f"></path><path d="M673 424.6L768 429.6L771 339.9Z" fill="#025145" stroke="#025145"></path><path d="M771 339.9L860 430.6L863 340.9Z" fill="#013d2f" stroke="#013d2f"></path><path d="M768 429.6L860 430.6L771 339.9Z" fill="#003627" stroke="#003627"></path><path d="M673 170.4L671 257.1L766 253.1Z" fill="#013d2f" stroke="#013d2f"></path><path d="M766 253.1L671 257.1L771 339.9Z" fill="#014537" stroke="#014537"></path><path d="M671 257.1L671 342.9L771 339.9Z" fill="#00392b" stroke="#00392b"></path><path d="M860 430.6L957 345.9L863 340.9Z" fill="#014537" stroke="#014537"></path><path d="M863 340.9L957 345.9L863 259.1Z" fill="#01493b" stroke="#01493b"></path><path d="M863 259.1L958 173.4L861 167.4Z" fill="#01493b" stroke="#01493b"></path><path d="M957 345.9L962 257.1L863 259.1Z" fill="#014d40" stroke="#014d40"></path><path d="M771 85.7L673 170.4L771 169.4Z" fill="#025549" stroke="#025549"></path><path d="M771 169.4L673 170.4L766 253.1Z" fill="#014537" stroke="#014537"></path><path d="M962 257.1L958 173.4L863 259.1Z" fill="#003223" stroke="#003223"></path><path d="M671 342.9L673 424.6L771 339.9Z" fill="#014133" stroke="#014133"></path><path d="M860 430.6L962 429.6L957 345.9Z" fill="#01493b" stroke="#01493b"></path><path d="M1054 339.9L1052 253.1L962 257.1Z" fill="#02594e" stroke="#02594e"></path><path d="M864 84.7L771 85.7L861 167.4Z" fill="#003627" stroke="#003627"></path><path d="M861 167.4L771 85.7L771 169.4Z" fill="#013d2f" stroke="#013d2f"></path><path d="M957 85.7L864 84.7L861 167.4Z" fill="#025145" stroke="#025145"></path><path d="M673 424.6L768 510.3L768 429.6Z" fill="#003223" stroke="#003223"></path><path d="M768 429.6L768 510.3L860 430.6Z" fill="#013d2f" stroke="#013d2f"></path><path d="M860 430.6L957 517.3L962 429.6Z" fill="#003627" stroke="#003627"></path><path d="M768 510.3L862 514.3L860 430.6Z" fill="#014537" stroke="#014537"></path><path d="M577 169.4L577 260.1L671 257.1Z" fill="#02594e" stroke="#02594e"></path><path d="M671 257.1L579 341.9L671 342.9Z" fill="#003223" stroke="#003223"></path><path d="M671 342.9L579 341.9L673 424.6Z" fill="#025145" stroke="#025145"></path><path d="M577 260.1L579 341.9L671 257.1Z" fill="#00392b" stroke="#00392b"></path><path d="M673 424.6L673 517.3L768 510.3Z" fill="#025145" stroke="#025145"></path><path d="M1054 339.9L962 257.1L957 345.9Z" fill="#013d2f" stroke="#013d2f"></path><path d="M962 257.1L1052 253.1L958 173.4Z" fill="#00392b" stroke="#00392b"></path><path d="M958 173.4L957 85.7L861 167.4Z" fill="#025549" stroke="#025549"></path><path d="M962 429.6L1054 339.9L957 345.9Z" fill="#003627" stroke="#003627"></path><path d="M1055 84.7L957 85.7L958 173.4Z" fill="#003627" stroke="#003627"></path><path d="M771 85.7L668 81.7L673 170.4Z" fill="#00392b" stroke="#00392b"></path><path d="M673 170.4L577 169.4L671 257.1Z" fill="#014d40" stroke="#014d40"></path><path d="M764 0L668 81.7L771 85.7Z" fill="#00392b" stroke="#00392b"></path><path d="M764 0L771 85.7L862 0Z" fill="#014133" stroke="#014133"></path><path d="M579 512.3L673 517.3L673 424.6Z" fill="#014133" stroke="#014133"></path><path d="M768 510.3L766 600L862 514.3Z" fill="#01493b" stroke="#01493b"></path><path d="M668 81.7L577 169.4L673 170.4Z" fill="#00392b" stroke="#00392b"></path><path d="M862 514.3L957 517.3L860 430.6Z" fill="#014133" stroke="#014133"></path><path d="M962 429.6L1058 431.6L1054 339.9Z" fill="#014537" stroke="#014537"></path><path d="M863 600L957 517.3L862 514.3Z" fill="#014537" stroke="#014537"></path><path d="M1152 255.1L1056 174.4L1052 253.1Z" fill="#00392b" stroke="#00392b"></path><path d="M1052 253.1L1056 174.4L958 173.4Z" fill="#00392b" stroke="#00392b"></path><path d="M579 341.9L575 429.6L673 424.6Z" fill="#013d2f" stroke="#013d2f"></path><path d="M482 343.9L575 429.6L579 341.9Z" fill="#025549" stroke="#025549"></path><path d="M482 343.9L579 341.9L577 260.1Z" fill="#013d2f" stroke="#013d2f"></path><path d="M1055 513.3L1058 431.6L962 429.6Z" fill="#02594e" stroke="#02594e"></path><path d="M1054 339.9L1152 255.1L1052 253.1Z" fill="#003223" stroke="#003223"></path><path d="M862 0L771 85.7L864 84.7Z" fill="#003627" stroke="#003627"></path><path d="M958 0L864 84.7L957 85.7Z" fill="#01493b" stroke="#01493b"></path><path d="M958 0L862 0L864 84.7Z" fill="#02594e" stroke="#02594e"></path><path d="M673 517.3L766 600L768 510.3Z" fill="#014d40" stroke="#014d40"></path><path d="M766 600L863 600L862 514.3Z" fill="#025549" stroke="#025549"></path><path d="M957 517.3L1055 513.3L962 429.6Z" fill="#003223" stroke="#003223"></path><path d="M668 81.7L575 86.7L577 169.4Z" fill="#02594e" stroke="#02594e"></path><path d="M477 256.1L482 343.9L577 260.1Z" fill="#02594e" stroke="#02594e"></path><path d="M573 0L575 86.7L668 81.7Z" fill="#014133" stroke="#014133"></path><path d="M575 429.6L579 512.3L673 424.6Z" fill="#025145" stroke="#025145"></path><path d="M673 517.3L672 600L766 600Z" fill="#025145" stroke="#025145"></path><path d="M1056 174.4L1055 84.7L958 173.4Z" fill="#014133" stroke="#014133"></path><path d="M764 0L672 0L668 81.7Z" fill="#025549" stroke="#025549"></path><path d="M1058 600L1055 513.3L957 517.3Z" fill="#025549" stroke="#025549"></path><path d="M1055 84.7L958 0L957 85.7Z" fill="#025549" stroke="#025549"></path><path d="M477 256.1L577 260.1L483 170.4Z" fill="#003223" stroke="#003223"></path><path d="M575 429.6L477 511.3L579 512.3Z" fill="#02594e" stroke="#02594e"></path><path d="M579 600L672 600L673 517.3Z" fill="#013d2f" stroke="#013d2f"></path><path d="M483 170.4L577 260.1L577 169.4Z" fill="#014537" stroke="#014537"></path><path d="M863 600L956 600L957 517.3Z" fill="#00392b" stroke="#00392b"></path><path d="M1153 343.9L1152 255.1L1054 339.9Z" fill="#003627" stroke="#003627"></path><path d="M1056 174.4L1148 167.4L1055 84.7Z" fill="#00392b" stroke="#00392b"></path><path d="M1153 343.9L1054 339.9L1058 431.6Z" fill="#01493b" stroke="#01493b"></path><path d="M1149 430.6L1153 343.9L1058 431.6Z" fill="#003627" stroke="#003627"></path><path d="M575 86.7L483 170.4L577 169.4Z" fill="#02594e" stroke="#02594e"></path><path d="M1152 255.1L1148 167.4L1056 174.4Z" fill="#025145" stroke="#025145"></path><path d="M382 343.9L476 426.6L482 343.9Z" fill="#025549" stroke="#025549"></path><path d="M482 343.9L476 426.6L575 429.6Z" fill="#003223" stroke="#003223"></path><path d="M579 512.3L579 600L673 517.3Z" fill="#013d2f" stroke="#013d2f"></path><path d="M1150 515.3L1149 430.6L1058 431.6Z" fill="#02594e" stroke="#02594e"></path><path d="M672 0L573 0L668 81.7Z" fill="#025145" stroke="#025145"></path><path d="M575 86.7L480 83.7L483 170.4Z" fill="#003627" stroke="#003627"></path><path d="M1155 81.7L1059 0L1055 84.7Z" fill="#014d40" stroke="#014d40"></path><path d="M1055 84.7L1059 0L958 0Z" fill="#014d40" stroke="#014d40"></path><path d="M477 511.3L579 600L579 512.3Z" fill="#003627" stroke="#003627"></path><path d="M956 600L1058 600L957 517.3Z" fill="#025145" stroke="#025145"></path><path d="M1055 513.3L1150 515.3L1058 431.6Z" fill="#025145" stroke="#025145"></path><path d="M573 0L480 83.7L575 86.7Z" fill="#013d2f" stroke="#013d2f"></path><path d="M380 258.1L382 343.9L477 256.1Z" fill="#013d2f" stroke="#013d2f"></path><path d="M476 426.6L477 511.3L575 429.6Z" fill="#014133" stroke="#014133"></path><path d="M1148 167.4L1155 81.7L1055 84.7Z" fill="#00392b" stroke="#00392b"></path><path d="M1251 87.7L1155 81.7L1148 167.4Z" fill="#01493b" stroke="#01493b"></path><path d="M1248 174.4L1148 167.4L1152 255.1Z" fill="#025145" stroke="#025145"></path><path d="M1058 600L1150 515.3L1055 513.3Z" fill="#00392b" stroke="#00392b"></path><path d="M1245 428.6L1247 339.9L1153 343.9Z" fill="#01493b" stroke="#01493b"></path><path d="M477 256.1L382 343.9L482 343.9Z" fill="#02594e" stroke="#02594e"></path><path d="M476 426.6L386 424.6L477 511.3Z" fill="#013d2f" stroke="#013d2f"></path><path d="M380 258.1L477 256.1L385 171.4Z" fill="#014133" stroke="#014133"></path><path d="M385 171.4L477 256.1L483 170.4Z" fill="#013d2f" stroke="#013d2f"></path><path d="M1245 428.6L1153 343.9L1149 430.6Z" fill="#014133" stroke="#014133"></path><path d="M1153 343.9L1247 339.9L1152 255.1Z" fill="#003223" stroke="#003223"></path><path d="M1247 339.9L1248 257.1L1152 255.1Z" fill="#014d40" stroke="#014d40"></path><path d="M573 0L480 0L480 83.7Z" fill="#014537" stroke="#014537"></path><path d="M387 84.7L385 171.4L483 170.4Z" fill="#014133" stroke="#014133"></path><path d="M387 84.7L483 170.4L480 83.7Z" fill="#025145" stroke="#025145"></path><path d="M382 343.9L386 424.6L476 426.6Z" fill="#003627" stroke="#003627"></path><path d="M1247 0L1151 0L1155 81.7Z" fill="#013d2f" stroke="#013d2f"></path><path d="M1155 81.7L1151 0L1059 0Z" fill="#013d2f" stroke="#013d2f"></path><path d="M1248 257.1L1248 174.4L1152 255.1Z" fill="#02594e" stroke="#02594e"></path><path d="M1150 515.3L1245 428.6L1149 430.6Z" fill="#013d2f" stroke="#013d2f"></path><path d="M1245 516.3L1245 428.6L1150 515.3Z" fill="#02594e" stroke="#02594e"></path><path d="M1058 600L1148 600L1150 515.3Z" fill="#01493b" stroke="#01493b"></path><path d="M383 600L476 600L477 511.3Z" fill="#01493b" stroke="#01493b"></path><path d="M477 511.3L476 600L579 600Z" fill="#013d2f" stroke="#013d2f"></path><path d="M480 0L387 84.7L480 83.7Z" fill="#003627" stroke="#003627"></path><path d="M286 256.1L289 341.9L380 258.1Z" fill="#00392b" stroke="#00392b"></path><path d="M386 424.6L382 510.3L477 511.3Z" fill="#014537" stroke="#014537"></path><path d="M290 424.6L382 510.3L386 424.6Z" fill="#003627" stroke="#003627"></path><path d="M290 424.6L386 424.6L382 343.9Z" fill="#003627" stroke="#003627"></path><path d="M1343 257.1L1248 174.4L1248 257.1Z" fill="#014537" stroke="#014537"></path><path d="M1343 173.4L1251 87.7L1248 174.4Z" fill="#025549" stroke="#025549"></path><path d="M1248 174.4L1251 87.7L1148 167.4Z" fill="#025549" stroke="#025549"></path><path d="M1246 600L1245 516.3L1150 515.3Z" fill="#003223" stroke="#003223"></path><path d="M1342 424.6L1342 341.9L1247 339.9Z" fill="#013d2f" stroke="#013d2f"></path><path d="M1247 339.9L1342 341.9L1248 257.1Z" fill="#02594e" stroke="#02594e"></path><path d="M480 0L384 0L387 84.7Z" fill="#025145" stroke="#025145"></path><path d="M286 256.1L380 258.1L286 169.4Z" fill="#014d40" stroke="#014d40"></path><path d="M1251 87.7L1247 0L1155 81.7Z" fill="#014d40" stroke="#014d40"></path><path d="M380 258.1L385 171.4L286 169.4Z" fill="#00392b" stroke="#00392b"></path><path d="M380 258.1L289 341.9L382 343.9Z" fill="#003627" stroke="#003627"></path><path d="M286 517.3L383 600L382 510.3Z" fill="#003627" stroke="#003627"></path><path d="M382 510.3L383 600L477 511.3Z" fill="#025549" stroke="#025549"></path><path d="M286 169.4L385 171.4L290 84.7Z" fill="#01493b" stroke="#01493b"></path><path d="M1148 600L1246 600L1150 515.3Z" fill="#014133" stroke="#014133"></path><path d="M1342 424.6L1247 339.9L1245 428.6Z" fill="#02594e" stroke="#02594e"></path><path d="M1342 424.6L1245 428.6L1345 514.3Z" fill="#025145" stroke="#025145"></path><path d="M1251 87.7L1346 0L1247 0Z" fill="#01493b" stroke="#01493b"></path><path d="M1342 341.9L1343 257.1L1248 257.1Z" fill="#01493b" stroke="#01493b"></path><path d="M286 517.3L290 424.6L194 510.3Z" fill="#025145" stroke="#025145"></path><path d="M289 341.9L290 424.6L382 343.9Z" fill="#014537" stroke="#014537"></path><path d="M290 84.7L385 171.4L387 84.7Z" fill="#02594e" stroke="#02594e"></path><path d="M1343 257.1L1343 173.4L1248 174.4Z" fill="#003223" stroke="#003223"></path><path d="M1345 514.3L1245 428.6L1245 516.3Z" fill="#02594e" stroke="#02594e"></path><path d="M1440 338.9L1440 258.1L1343 257.1Z" fill="#014133" stroke="#014133"></path><path d="M384 0L290 84.7L387 84.7Z" fill="#003223" stroke="#003223"></path><path d="M1343 173.4L1343 86.7L1251 87.7Z" fill="#013d2f" stroke="#013d2f"></path><path d="M191 341.9L290 424.6L289 341.9Z" fill="#014133" stroke="#014133"></path><path d="M290 424.6L286 517.3L382 510.3Z" fill="#01493b" stroke="#01493b"></path><path d="M1341 600L1345 514.3L1245 516.3Z" fill="#025145" stroke="#025145"></path><path d="M1440 338.9L1343 257.1L1342 341.9Z" fill="#014133" stroke="#014133"></path><path d="M1440 173.4L1343 86.7L1343 173.4Z" fill="#014d40" stroke="#014d40"></path><path d="M1440 84.7L1346 0L1343 86.7Z" fill="#01493b" stroke="#01493b"></path><path d="M384 0L290 0L290 84.7Z" fill="#014537" stroke="#014537"></path><path d="M188 257.1L286 256.1L193 171.4Z" fill="#025145" stroke="#025145"></path><path d="M286 517.3L288 600L383 600Z" fill="#02594e" stroke="#02594e"></path><path d="M1343 86.7L1346 0L1251 87.7Z" fill="#025549" stroke="#025549"></path><path d="M1440 173.4L1343 173.4L1343 257.1Z" fill="#003627" stroke="#003627"></path><path d="M1246 600L1341 600L1245 516.3Z" fill="#02594e" stroke="#02594e"></path><path d="M286 256.1L191 341.9L289 341.9Z" fill="#013d2f" stroke="#013d2f"></path><path d="M286 517.3L193 600L288 600Z" fill="#02594e" stroke="#02594e"></path><path d="M188 257.1L191 341.9L286 256.1Z" fill="#02594e" stroke="#02594e"></path><path d="M286 256.1L286 169.4L193 171.4Z" fill="#025145" stroke="#025145"></path><path d="M193 171.4L286 169.4L188 86.7Z" fill="#025145" stroke="#025145"></path><path d="M1440 338.9L1342 424.6L1440 428.6Z" fill="#014537" stroke="#014537"></path><path d="M1440 338.9L1342 341.9L1342 424.6Z" fill="#003627" stroke="#003627"></path><path d="M1440 428.6L1342 424.6L1345 514.3Z" fill="#025549" stroke="#025549"></path><path d="M188 86.7L286 169.4L290 84.7Z" fill="#003627" stroke="#003627"></path><path d="M96 341.9L192 427.6L191 341.9Z" fill="#003627" stroke="#003627"></path><path d="M191 341.9L192 427.6L290 424.6Z" fill="#014537" stroke="#014537"></path><path d="M1440 258.1L1440 173.4L1343 257.1Z" fill="#013d2f" stroke="#013d2f"></path><path d="M1440 511.3L1440 428.6L1345 514.3Z" fill="#025549" stroke="#025549"></path><path d="M192 427.6L194 510.3L290 424.6Z" fill="#014537" stroke="#014537"></path><path d="M92 259.1L96 341.9L188 257.1Z" fill="#02594e" stroke="#02594e"></path><path d="M194 0L188 86.7L290 84.7Z" fill="#025549" stroke="#025549"></path><path d="M1440 173.4L1440 84.7L1343 86.7Z" fill="#014d40" stroke="#014d40"></path><path d="M1440 600L1440 511.3L1345 514.3Z" fill="#003627" stroke="#003627"></path><path d="M290 0L194 0L290 84.7Z" fill="#014d40" stroke="#014d40"></path><path d="M97 431.6L194 510.3L192 427.6Z" fill="#003627" stroke="#003627"></path><path d="M97 517.3L193 600L194 510.3Z" fill="#014537" stroke="#014537"></path><path d="M194 510.3L193 600L286 517.3Z" fill="#014d40" stroke="#014d40"></path><path d="M1440 84.7L1440 0L1346 0Z" fill="#003223" stroke="#003223"></path><path d="M1341 600L1440 600L1345 514.3Z" fill="#00392b" stroke="#00392b"></path><path d="M188 257.1L96 341.9L191 341.9Z" fill="#013d2f" stroke="#013d2f"></path><path d="M92 259.1L188 257.1L95 174.4Z" fill="#02594e" stroke="#02594e"></path><path d="M188 257.1L193 171.4L95 174.4Z" fill="#003223" stroke="#003223"></path><path d="M95 174.4L193 171.4L188 86.7Z" fill="#014d40" stroke="#014d40"></path><path d="M94 86.7L95 174.4L188 86.7Z" fill="#025549" stroke="#025549"></path><path d="M0 428.6L97 431.6L96 341.9Z" fill="#003223" stroke="#003223"></path><path d="M96 341.9L97 431.6L192 427.6Z" fill="#025549" stroke="#025549"></path><path d="M95 174.4L0 254.1L92 259.1Z" fill="#013d2f" stroke="#013d2f"></path><path d="M96 0L94 86.7L188 86.7Z" fill="#025549" stroke="#025549"></path><path d="M0 515.3L97 517.3L97 431.6Z" fill="#003627" stroke="#003627"></path><path d="M97 431.6L97 517.3L194 510.3Z" fill="#014133" stroke="#014133"></path><path d="M194 0L96 0L188 86.7Z" fill="#003223" stroke="#003223"></path><path d="M0 600L96 600L97 517.3Z" fill="#00392b" stroke="#00392b"></path><path d="M97 517.3L96 600L193 600Z" fill="#00392b" stroke="#00392b"></path><path d="M0 173.4L0 254.1L95 174.4Z" fill="#00392b" stroke="#00392b"></path><path d="M92 259.1L0 338.9L96 341.9Z" fill="#014d40" stroke="#014d40"></path><path d="M0 173.4L95 174.4L94 86.7Z" fill="#003223" stroke="#003223"></path><path d="M0 254.1L0 338.9L92 259.1Z" fill="#003223" stroke="#003223"></path><path d="M0 85.7L0 173.4L94 86.7Z" fill="#014d40" stroke="#014d40"></path><path d="M0 338.9L0 428.6L96 341.9Z" fill="#025145" stroke="#025145"></path><path d="M0 0L0 85.7L94 86.7Z" fill="#003627" stroke="#003627"></path><path d="M0 428.6L0 515.3L97 431.6Z" fill="#014133" stroke="#014133"></path><path d="M96 0L0 0L94 86.7Z" fill="#013d2f" stroke="#013d2f"></path><path d="M0 515.3L0 600L97 517.3Z" fill="#01493b" stroke="#01493b"></path></g></svg>